:FULLY-SPECIFIED
:FORCE-ALL-JOINTS-BE-3DOF
:DEGREES
442
root 1.53625 15.2462 -9.10013 5.49745 5.18529 -13.6654
lfemur -47.122 16.514 3.43712
ltibia 62.9776 0 0
lfoot -24.9422 -9.91069 0
ltoes -11.8465 0 0
rfemur -14.7693 -3.11096 8.87144
rtibia 38.501 0 0
rfoot -14.1709 -13.5514 0
rtoes -49.911 0 0
lowerback 5.76018 1.45125 4.77488
upperback 0.983347 2.24947 1.01472
thorax -2.07132 1.09264 -1.79553
lowerneck -7.12083 0.0440265 5.65264
upperneck 0.882858 -0.424413 0.0349802
head 1.48051 -0.180084 -0.964871
lclavicle 1.6897e-15 -1.98785e-14 0
lhumerus -39.924 -28.2866 97.8796
lradius 53.9607 0 0
lwrist 7.77465 0 0
lhand -20.6153 -1.72097 0
lfingers 7.12502 0 0
lthumb 5.74534 28.1676 0
rclavicle 1.6897e-15 -1.98785e-14 0
rhumerus -48.5337 -2.50516 -89.4237
rradius 66.5094 0 0
rwrist 12.8491 0 0
rhand -30.9481 -28.688 0
rfingers 7.12502 0 0
rthumb -4.23273 -778.609 0
443
root 1.49266 15.2506 -9.0528 5.60102 6.9676 -13.7907
lfemur -48.4591 17.6226 2.49887
ltibia 63.2373 0 0
lfoot -23.8552 -9.40632 0
ltoes -10.4987 0 0
rfemur -14.0869 -4.01445 9.26553
rtibia 38.3728 0 0
rfoot -14.1829 -14.2762 0
rtoes -49.9898 0 0
lowerback 5.68756 1.44515 4.86179
upperback 0.953058 2.24478 1.04716
thorax -2.0603 1.08985 -1.80852
lowerneck -7.12182 -0.144411 5.45171
upperneck 0.617392 -0.653138 0.0468023
head 1.38723 -0.300377 -0.931972
lclavicle 1.16208e-14 -2.0709e-14 0
lhumerus -39.8335 -27.8419 98.0133
lradius 54.1022 0 0
lwrist 7.46098 0 0
lhand -21.4732 -2.27482 0
lfingers 7.12502 0 0
lthumb 4.9171 27.6362 0
rclavicle 1.16208e-14 -2.0709e-14 0
rhumerus -48.3276 -2.33105 -89.3552
rradius 66.3422 0 0
rwrist 12.7199 0 0
rhand -29.9791 -28.1084 0
rfingers 7.12502 0 0
rthumb -3.29708 -778.047 0
444
root 1.45046 15.2548 -9.00698 5.70128 8.69303 -13.912
lfemur -49.7536 18.6958 1.59056
ltibia 63.4888 0 0
lfoot -22.803 -8.91806 0
ltoes -9.19388 0 0
rfemur -13.4261 -4.88911 9.64704
rtibia 38.2487 0 0
rfoot -14.1944 -14.9779 0
rtoes -50.0661 0 0
lowerback 5.61725 1.43925 4.94593
upperback 0.923735 2.24023 1.07856
thorax -2.04964 1.08715 -1.82109
lowerneck -7.12277 -0.326834 5.25719
upperneck 0.360397 -0.874564 0.058247
head 1.29694 -0.41683 -0.900123
lclavicle 2.1235e-14 -2.15129e-14 0
lhumerus -39.7459 -27.4115 98.1426
lradius 54.2391 0 0
lwrist 7.15731 0 0
lhand -22.3037 -2.811 0
lfingers 7.12502 0 0
lthumb 4.11528 27.1219 0
rclavicle 2.1235e-14 -2.15129e-14 0
rhumerus -48.1281 -2.16249 -89.2888
rradius 66.1804 0 0
rwrist 12.5948 0 0
rhand -29.0411 -27.5474 0
rfingers 7.12502 0 0
rthumb -2.39129 -777.504 0
445
root 1.41105 15.2588 -8.96419 5.79493 10.3047 -14.0253
lfemur -50.9628 19.6983 0.742137
ltibia 63.7237 0 0
lfoot -21.8201 -8.46198 0
ltoes -7.97512 0 0
rfemur -12.809 -5.70609 10.0034
rtibia 38.1327 0 0
rfoot -14.2052 -15.6333 0
rtoes -50.1374 0 0
lowerback 5.55158 1.43374 5.02452
upperback 0.896345 2.23598 1.10789
thorax -2.03968 1.08462 -1.83283
lowerneck -7.12366 -0.497229 5.0755
upperneck 0.120347 -1.08139 0.0689372
head 1.21259 -0.525605 -0.870373
lclavicle 3.02153e-14 -2.22639e-14 0
lhumerus -39.664 -27.0094 98.2635
lradius 54.3671 0 0
lwrist 6.87367 0 0
lhand -23.0795 -3.31182 0
lfingers 7.12502 0 0
lthumb 3.36633 26.6414 0
rclavicle 3.02153e-14 -2.22639e-14 0
rhumerus -47.9418 -2.00505 -89.2269
rradius 66.0292 0 0
rwrist 12.478 0 0
rhand -28.1649 -27.0233 0
rfingers 7.12502 0 0
rthumb -1.54522 -776.997 0
446
root 1.42958 15.2857 -8.90272 5.71971 12.018 -14.1835
lfemur -51.859 20.4568 -0.632462
ltibia 63.7087 0 0
lfoot -21.3161 -7.6482 0
ltoes -6.63089 0 0
rfemur -11.8728 -6.29247 10.3175
rtibia 37.5657 0 0
rfoot -13.3854 -15.9898 0
rtoes -50.3022 0 0
lowerback 5.31937 1.37763 5.25222
upperback 0.843804 2.16164 1.2243
thorax -1.96587 1.04788 -1.82973
lowerneck -7.12195 -0.674816 4.92968
upperneck 0.12481 -1.30577 0.0818227
head 1.20917 -0.637614 -0.848079
lclavicle 3.0935e-14 -2.50174e-14 0
lhumerus -39.9334 -26.6307 98.6733
lradius 54.2384 0 0
lwrist 6.43399 0 0
lhand -23.8844 -4.09704 0
lfingers 7.12502 0 0
lthumb 2.58893 25.8594 0
rclavicle 3.0935e-14 -2.50174e-14 0
rhumerus -48.0905 -2.00564 -88.8036
rradius 65.9422 0 0
rwrist 12.2987 0 0
rhand -27.9773 -26.5323 0
rfingers 7.12502 0 0
rthumb -1.36401 -776.507 0
447
root 1.44942 15.3145 -8.8369 5.63918 13.8522 -14.3528
lfemur -52.8184 21.2688 -2.10409
ltibia 63.6927 0 0
lfoot -20.7765 -6.77698 0
ltoes -5.19176 0 0
rfemur -10.8705 -6.92024 10.6538
rtibia 36.9587 0 0
rfoot -12.5078 -16.3714 0
rtoes -50.4787 0 0
lowerback 5.07076 1.31755 5.49598
upperback 0.787554 2.08205 1.34893
thorax -1.88684 1.00854 -1.82642
lowerneck -7.12013 -0.864939 4.77357
upperneck 0.129588 -1.54599 0.0956178
head 1.20551 -0.757529 -0.824211
lclavicle 3.17054e-14 -2.79653e-14 0
lhumerus -40.2218 -26.2253 99.112
lradius 54.1005 0 0
lwrist 5.96328 0 0
lhand -24.7462 -4.93769 0
lfingers 7.12502 0 0
lthumb 1.75666 25.0223 0
rclavicle 3.17054e-14 -2.79653e-14 0
rhumerus -48.2498 -2.00627 -88.3505
rradius 65.8491 0 0
rwrist 12.1067 0 0
rhand -27.7764 -26.0067 0
rfingers 7.12502 0 0
rthumb -1.17 -775.982 0
448
root 1.46991 15.3443 -8.76892 5.556 15.7469 -14.5277
lfemur -53.8094 22.1076 -3.62424
ltibia 63.6762 0 0
lfoot -20.2191 -5.87703 0
ltoes -3.7052 0 0
rfemur -9.83516 -7.5687 11.0012
rtibia 36.3317 0 0
rfoot -11.6012 -16.7656 0
rtoes -50.6609 0 0
lowerback 4.81396 1.2555 5.74779
upperback 0.729449 1.99985 1.47767
thorax -1.80522 0.967909 -1.82299
lowerneck -7.11824 -1.06133 4.61231
upperneck 0.134523 -1.79413 0.109868
head 1.20173 -0.881398 -0.799557
lclavicle 3.25013e-14 -3.10104e-14 0
lhumerus -40.5196 -25.8064 99.5652
lradius 53.9581 0 0
lwrist 5.47705 0 0
lhand -25.6363 -5.80604 0
lfingers 7.12502 0 0
lthumb 0.896945 24.1576 0
rclavicle 3.25013e-14 -3.10104e-14 0
rhumerus -48.4143 -2.00692 -87.8824
rradius 65.7529 0 0
rwrist 11.9084 0 0
rhand -27.569 -25.4638 0
rfingers 7.12502 0 0
rthumb -0.969602 -775.44 0
